Coordinates
version=1
nRows=27
nColumns=19
inDegrees=yes

Units are S.I. units (second, meters, Newtons, ...)
If the header above contains a line with 'inDegrees', this indicates whether rotational values are in degrees (yes) or radians (no).

endheader
time	pelvis_tilt	pelvis_list	pelvis_rotation	pelvis_tx	pelvis_ty	pelvis_tz	hip_flexion_r	hip_adduction_r	hip_rotation_r	knee_angle_r	knee_angle_r_beta	ankle_angle_r	hip_flexion_l	hip_adduction_l	hip_rotation_l	knee_angle_l	knee_angle_l_beta	ankle_angle_l
     14.92000000	     -4.06992675	     -5.84966304	     -9.15079149	      2.34538952	      1.06783535	      1.13226246	     18.97342803	     12.14315179	      2.69169371	      5.01726523	      0.08756780	      4.94590306	    -14.64129065	     -6.25983708	    -10.37295008	     62.07822911	      1.08346949	    -25.10950617
     14.92666667	     -3.31173410	     -6.45185936	     -9.26491262	      2.34441876	      1.06354724	      1.13200154	     18.35337229	     12.67678188	      2.85998170	      7.17982557	      0.12531160	      5.09635161	    -14.17824622	     -7.20890465	    -10.39854998	     65.89501228	      1.15008492	    -25.27741415
     14.93333333	     -2.67477717	     -6.99501120	     -9.39841620	      2.34318151	      1.05861907	      1.13181778	     18.09016583	     13.17800890	      2.87348605	      9.93593653	      0.17341481	      5.30930160	    -13.48261030	     -8.17191935	    -10.40564989	     69.74700041	      1.21731480	    -25.32496432
     14.94000000	     -2.65726326	     -7.20039723	     -9.58352389	      2.34157966	      1.05255553	      1.13174936	     18.81141001	     13.43254343	      2.75113799	     13.34783771	      0.23296372	      5.67398211	    -11.90180354	     -8.85939525	    -10.15296493	     73.69283334	      1.28618258	    -25.20103051
     14.94666667	     -1.61307343	     -7.94119945	     -9.67066214	      2.34014271	      1.04728614	      1.13156861	     18.19902355	     14.06696138	      2.57195773	     16.55704285	      0.28897491	      6.06093994	    -11.61962505	    -10.02880291	    -10.12681842	     77.33979152	      1.34983400	    -24.93201798
     14.95333333	     -1.74418995	     -8.00979992	     -9.74707136	      2.33814346	      1.04040543	      1.13139463	     19.29545789	     14.14551725	      2.11397740	     20.47285973	      0.35731881	      6.80566629	     -9.64020979	    -10.63731050	     -9.56723843	     81.19595307	      1.41713672	    -24.53943652
     14.96000000	     -1.31774068	     -8.30865702	     -9.73265883	      2.33612055	      1.03406458	      1.13108391	     19.63685978	     14.34119803	      1.59917480	     24.19560531	      0.42229298	      7.74077118	     -8.29105140	    -11.41961759	     -9.02265339	     84.81423741	      1.48028770	    -24.04785969
     14.96666667	     -0.94745779	     -8.52073796	     -9.68303216	      2.33389119	      1.02766006	      1.13065896	     20.01433117	     14.42203088	      1.05513169	     27.89130182	      0.48679505	      8.96109028	     -6.74989742	    -12.09249158	     -8.33787433	     88.32181391	      1.54150645	    -23.44948940
     14.97333333	     -0.57255441	     -8.65894560	     -9.56960074	      2.33148682	      1.02146581	      1.13011003	     20.29378136	     14.39146529	      0.50492370	     31.42846251	      0.54853015	     10.46155640	     -5.08175160	    -12.65839605	     -7.51222375	     91.66295011	      1.59982028	    -22.83212356
     14.98000000	     -0.18343174	     -8.62715472	     -9.37201572	      2.32885382	      1.01561931	      1.12936421	     20.44639747	     14.15015401	      0.02407201	     34.75032809	      0.60650764	     12.24431959	     -3.25576980	    -12.95620439	     -6.50022224	     94.83250808	      1.65513950	    -22.05496613
     14.98666667	      0.06912383	     -8.52308281	     -9.22222701	      2.32606266	      1.01008335	      1.12866032	     20.54522348	     13.88041385	     -0.27380015	     37.74905265	      0.65884526	     14.18250060	     -1.18801167	    -13.16709927	     -5.49700385	     97.80190681	      1.70696529	    -21.26911461
     14.99333333	      0.31537232	     -8.30457035	     -9.05374462	      2.32315870	      1.00514903	      1.12791769	     20.41407671	     13.51214409	     -0.38366333	     40.34401248	      0.70413585	     16.24620788	      0.99281766	    -13.21199406	     -4.48192299	    100.51986930	      1.75440268	    -20.44847746
     15.00000000	      0.99902269	     -8.25858240	     -9.00694541	      2.32038082	      1.00141484	      1.12737096	     19.40923609	     13.35550393	     -0.13761929	     42.35072945	      0.73915967	     18.43883825	      2.57393013	    -13.42563550	     -3.78125508	    102.84725564	      1.79502324	    -19.45926044
     15.00666667	      0.62595800	     -7.59945691	     -8.82061675	      2.31729559	      0.99725390	      1.12668021	     19.53244164	     12.63269457	      0.00594238	     44.17713940	      0.77103654	     20.42817852	      5.70608186	    -12.92985678	     -2.66934705	    105.09073872	      1.83417940	    -18.62043769
     15.01333333	      0.84671725	     -7.11323967	     -8.70911307	      2.31454185	      0.99459548	      1.12614454	     18.58249365	     12.06437535	      0.42747754	     45.35834863	      0.79165253	     22.42845642	      8.01304448	    -12.58210295	     -1.93253884	    106.85445903	      1.86496213	    -17.62795474
     15.02000000	      0.88472386	     -6.59550887	     -8.69977125	      2.31209268	      0.99258535	      1.12590256	     17.52616638	     11.53057159	      1.02747837	     46.04564750	      0.80364816	     24.21895452	     10.44864906	    -12.25063359	     -1.40078498	    108.26907133	      1.88965177	    -16.52771352
     15.02666667	      1.18789917	     -6.22346838	     -8.75509782	      2.31010075	      0.99185297	      1.12594168	     15.78674865	     11.14888208	      1.82234879	     46.09520356	      0.80451307	     25.75743819	     12.42427261	    -12.10939927	     -1.12499035	    109.23120199	      1.90644412	    -15.39007519
     15.03333333	      1.23999302	     -5.45312631	     -8.71549882	      2.30842172	      0.99154639	      1.12590252	     14.24594365	     10.25801601	      2.41542083	     45.94264583	      0.80185044	     27.05948952	     14.69945453	    -11.47541023	     -0.92859863	    109.85050210	      1.91725295	    -14.09930975
     15.04000000	      1.24750956	     -4.87432286	     -8.75778762	      2.30724953	      0.99206779	      1.12624685	     12.44045070	      9.61018606	      3.13632657	     45.27452588	      0.79018954	     27.99518106	     16.82891192	    -11.16194502	     -0.95185507	    110.08325105	      1.92131518	    -12.80189072
     15.04666667	      1.10369804	     -4.27547855	     -8.79674880	      2.30665375	      0.99330151	      1.12674763	     10.58739346	      8.92279257	      3.82100737	     44.21004866	      0.77161091	     28.42907370	     18.97949968	    -10.88226598	     -1.13279916	    109.93022048	      1.91864429	    -11.56391619
     15.05333333	      1.49501019	     -3.48085602	     -8.75175540	      2.30665789	      0.99583808	      1.12719531	      8.02376796	      7.85028826	      4.36153386	     42.84561028	      0.74779697	     28.61761237	     20.33572712	    -10.24876877	     -1.54472455	    109.29984396	      1.90764215	    -10.11490337
     15.06000000	      1.07020076	     -2.86600244	     -8.76051047	      2.30706997	      0.99813441	      1.12790202	      6.21485385	      7.10441879	      4.87022501	     41.23800532	      0.71973897	     28.23239012	     22.47286118	    -10.03772916	     -1.99997572	    108.46779024	      1.89312007	     -8.82425792
     15.06666667	      2.01463330	     -2.20901939	     -8.65287498	      2.30822367	      1.00273658	      1.12851491	      2.69135170	      6.01150328	      5.24146355	     39.12474480	      0.68285562	     27.34376765	     22.75925087	     -9.53725424	     -2.72000691	    107.04073839	      1.86821332	     -7.34619995
     15.07333333	      1.28643576	     -1.51987942	     -8.57979054	      2.30945726	      1.00585967	      1.12912733	      1.10891566	      5.18091479	      5.60222431	     37.18970146	      0.64908274	     25.91177626	     24.92080608	     -9.24083958	     -3.35146563	    105.60472143	      1.84315009	     -6.11011231
     15.08000000	      2.19187850	     -0.80789998	     -8.32084290	      2.31153742	      1.01151627	      1.12949323	     -2.49682139	      3.95629810	      5.53089956	     34.65021877	      0.60476040	     23.83031911	     24.92298820	     -8.62389998	     -4.19644440	    103.56778048	      1.80759877	     -4.80195890
     15.08666667	      2.20154240	     -0.12652740	     -8.14462727	      2.31372129	      1.01653708	      1.12985375	     -5.04117272	      2.93885459	      5.54228502	     32.20244068	      0.56203862	     21.19725016	     25.82299210	     -8.19228897	     -5.08421274	    101.41663484	      1.77005419	     -3.63051359
     15.09333333	      2.06179144	      0.54141788	     -7.79308492	      2.31622447	      1.02174536	      1.12987059	     -7.41816508	      1.95819887	      5.24932629	     29.66582951	      0.51776640	     17.97810614	     26.77613860	     -7.67728593	     -5.86278252	     99.04649235	      1.72868740	     -2.53989604
